<?xml version="1.0" standalone="no"?>
<!DOCTYPE svg PUBLIC "-//W3C//DTD SVG 20010904//EN"
 "http://www.w3.org/TR/2001/REC-SVG-20010904/DTD/svg10.dtd">
<svg version="1.0" xmlns="http://www.w3.org/2000/svg"
 width="512.000000pt" height="512.000000pt" viewBox="0 0 512.000000 512.000000"
 preserveAspectRatio="xMidYMid meet">

<g transform="translate(0.000000,512.000000) scale(0.100000,-0.100000)"
fill="#000000" stroke="none">
<path d="M1598 5105 c-213 -52 -398 -207 -498 -417 -58 -122 -70 -200 -70
-445 l0 -209 -46 -38 c-28 -23 -56 -60 -70 -90 -23 -49 -24 -61 -24 -256 0
-238 5 -257 87 -331 59 -53 105 -69 195 -69 l65 0 13 -62 c17 -90 64 -211 111
-291 47 -79 148 -189 231 -254 l58 -44 0 -58 c0 -32 -5 -72 -11 -89 l-10 -30
-37 21 c-26 15 -53 22 -92 22 -52 0 -65 -6 -181 -76 -76 -46 -148 -82 -186
-92 -35 -9 -102 -34 -150 -55 -384 -165 -683 -493 -813 -890 -57 -178 -65
-239 -65 -552 0 -276 1 -287 23 -343 48 -118 181 -228 310 -256 38 -8 420 -11
1322 -11 l1268 0 31 26 c38 32 41 72 7 111 l-24 28 -226 3 -225 3 -10 52 c-6
29 -51 283 -101 565 l-91 513 42 74 43 75 53 0 c30 0 68 7 86 16 18 9 140 124
272 255 l241 240 89 -32 c50 -17 107 -40 127 -50 69 -35 128 -17 144 46 14 57
-65 109 -267 175 -57 19 -135 57 -211 102 -112 67 -126 73 -177 73 -40 0 -67
-7 -93 -22 l-37 -21 -10 30 c-6 17 -11 56 -11 88 l0 56 80 64 c68 53 177 171
207 224 6 10 39 15 128 18 100 3 127 8 163 26 67 35 118 88 152 154 l30 61 0
361 c0 414 1 408 -88 488 l-52 46 0 231 c0 208 -2 235 -21 286 -42 112 -159
205 -277 221 -50 6 -52 8 -58 43 -14 89 -38 135 -104 202 -102 103 -74 99
-674 98 -398 0 -524 -4 -568 -14z m1093 -165 c59 -31 81 -70 94 -173 4 -33 16
-58 37 -83 41 -46 59 -55 145 -70 86 -15 128 -42 154 -98 17 -37 19 -70 19
-323 0 -263 -1 -284 -19 -302 -10 -10 -59 -32 -109 -49 l-91 -30 -3 201 c-3
198 -4 203 -32 264 -35 76 -104 144 -184 181 -78 35 -192 36 -307 1 -69 -21
-100 -24 -230 -24 -130 0 -161 3 -230 24 -216 66 -401 -1 -487 -177 l-33 -67
-3 -202 -4 -202 -96 34 c-54 19 -98 35 -98 35 -1 0 -7 13 -14 29 -9 22 -11
102 -8 303 5 295 9 321 68 438 72 143 207 250 370 294 45 12 145 15 538 15
467 1 484 0 523 -19z m-789 -640 c163 -44 367 -45 525 0 150 42 253 17 303
-71 24 -42 25 -53 30 -262 l5 -218 47 -44 c34 -33 58 -46 88 -51 l42 -7 -5
-196 c-2 -108 -10 -222 -17 -253 l-13 -58 -29 25 c-42 35 -89 45 -222 45 -148
0 -188 -11 -247 -70 -76 -76 -87 -172 -29 -263 40 -63 98 -95 188 -103 l73 -7
-28 -19 c-54 -37 -160 -86 -233 -110 -97 -30 -308 -33 -410 -5 -227 61 -428
228 -511 426 -46 111 -59 187 -66 399 l-6 192 24 0 c46 1 107 37 136 81 l28
43 5 215 c5 203 6 218 28 253 47 76 152 97 294 58z m-722 -579 l50 -22 0 -144
0 -145 -50 0 c-61 0 -107 22 -120 56 -6 14 -10 102 -10 196 l0 171 40 -45 c23
-27 60 -54 90 -67z m2100 -70 c0 -175 -1 -181 -24 -207 -20 -24 -32 -28 -90
-32 l-66 -4 0 145 0 146 53 24 c28 13 68 42 87 65 19 22 36 41 38 41 1 1 2
-80 2 -178z m-19 -509 c-26 -51 -86 -82 -160 -82 -47 0 -52 2 -46 18 4 9 14
52 23 95 l17 77 70 1 c38 0 79 4 90 8 18 7 20 4 23 -35 2 -28 -4 -56 -17 -82z
m-465 -116 c18 -26 18 -51 -2 -70 -12 -13 -40 -16 -138 -16 -131 0 -146 5
-146 50 0 54 15 60 158 57 100 -2 115 -4 128 -21z m-925 -531 c187 -67 443
-62 632 10 14 6 17 1 17 -26 0 -19 11 -59 23 -89 l22 -55 -195 -124 c-107 -68
-199 -124 -205 -124 -5 0 -97 56 -203 124 -142 90 -192 127 -188 138 2 9 12
34 20 56 8 22 15 55 16 73 0 37 2 37 61 17z m-95 -356 c140 -89 253 -163 252
-164 -79 -71 -215 -175 -231 -175 -14 0 -90 69 -229 207 -114 114 -208 210
-208 213 0 12 117 79 138 79 14 1 128 -65 278 -160z m1135 125 c32 -20 59 -40
59 -43 0 -4 -94 -100 -208 -214 -131 -130 -215 -207 -228 -207 -11 0 -68 40
-126 89 l-107 88 252 161 c139 88 263 161 275 161 13 1 51 -15 83 -35z m-1471
-350 c149 -149 250 -243 275 -255 22 -10 62 -19 91 -19 l51 0 43 -72 42 -73
-97 -555 c-54 -305 -100 -561 -102 -568 -4 -9 -87 -12 -369 -12 l-364 0 0 184
c0 181 0 183 -25 210 -32 34 -77 35 -110 1 -25 -24 -25 -26 -25 -210 l0 -185
-198 0 c-197 0 -199 0 -253 28 -32 16 -67 44 -86 69 -49 66 -56 123 -50 388 6
253 19 336 77 500 130 366 416 649 790 781 36 12 67 23 70 23 3 1 111 -105
240 -235z m816 -105 c46 -39 84 -73 84 -76 0 -2 -18 -36 -40 -74 l-41 -69 -94
0 -93 0 -42 72 c-33 57 -38 74 -28 83 44 40 159 135 164 135 3 0 43 -32 90
-71z m72 -911 c51 -288 93 -526 92 -530 0 -5 -115 -8 -256 -8 l-256 0 4 22 c2
13 44 251 94 530 l89 508 71 0 70 0 92 -522z"/>
<path d="M3796 2045 c-405 -84 -719 -384 -818 -781 -33 -133 -31 -351 5 -486
105 -397 427 -697 823 -768 106 -19 348 -8 449 19 465 129 788 574 762 1050
-25 457 -328 825 -782 953 -94 26 -340 34 -439 13z m409 -174 c313 -83 549
-323 627 -639 17 -67 22 -115 21 -212 -1 -156 -23 -246 -93 -385 -150 -298
-437 -475 -770 -475 -492 0 -873 379 -873 870 1 236 85 443 251 613 208 214
544 305 837 228z"/>
<path d="M4340 1442 c-21 -10 -50 -40 -71 -72 -69 -103 -259 -449 -259 -470 0
-12 13 -35 29 -51 l29 -29 141 0 141 0 0 -75 c0 -67 3 -79 25 -100 33 -33 70
-32 106 4 27 27 29 35 29 100 0 58 3 71 16 71 22 0 74 55 74 78 0 28 -47 82
-71 82 -18 0 -19 10 -19 193 0 173 -2 195 -20 224 -20 33 -66 63 -97 63 -10 0
-34 -8 -53 -18z m6 -459 c-2 -2 -29 -3 -59 -1 l-56 3 57 102 57 101 3 -100 c1
-55 1 -103 -2 -105z"/>
<path d="M3577 1436 c-86 -32 -156 -113 -165 -191 -4 -38 -1 -50 18 -70 34
-36 81 -34 114 6 14 17 26 36 26 43 0 18 40 52 69 59 37 9 86 -16 101 -52 19
-48 -5 -99 -134 -277 -173 -241 -176 -245 -176 -271 0 -14 13 -37 29 -54 l29
-29 200 0 200 0 26 31 c33 38 33 60 0 98 -25 30 -26 30 -136 33 l-110 3 81
110 c146 199 184 303 146 402 -22 57 -76 118 -129 145 -51 26 -139 33 -189 14z"/>
</g>
</svg>
